<?xml version="1.0" standalone="no"?>
<!DOCTYPE svg PUBLIC "-//W3C//DTD SVG 20010904//EN"
 "http://www.w3.org/TR/2001/REC-SVG-20010904/DTD/svg10.dtd">
<svg version="1.0" xmlns="http://www.w3.org/2000/svg"
 width="242.000000pt" height="216.000000pt" viewBox="0 0 242.000000 216.000000"
 preserveAspectRatio="xMidYMid meet">

<g transform="translate(0.000000,216.000000) scale(0.100000,-0.100000)"
fill="#000000" stroke="none">
<path d="M1010 2110 c0 -6 16 -27 35 -47 60 -62 95 -189 95 -350 l0 -83 -202
150 c-111 83 -210 150 -220 150 -27 0 -33 -19 -38 -137 l-5 -112 -212 164
c-117 91 -221 165 -233 165 -20 0 -20 -1 -20 -959 0 -836 2 -960 15 -971 8 -7
20 -10 27 -7 7 2 118 205 246 451 l234 446 209 0 c115 0 209 -4 209 -9 0 -45
34 -330 45 -379 18 -77 51 -157 73 -174 14 -11 15 -10 8 7 -54 133 -80 257
-92 452 l-7 103 207 -2 207 -3 254 -440 c140 -242 263 -446 273 -453 11 -7 27
-10 36 -6 15 6 16 82 14 972 -3 885 -4 967 -19 970 -9 2 -124 -73 -255 -166
l-239 -169 -3 120 c-3 118 -10 147 -38 147 -7 0 -109 -72 -226 -159 l-213
-160 -7 115 c-9 146 -22 208 -59 284 -33 65 -99 125 -99 90z m-330 -813 l0
-319 -206 -394 c-113 -217 -208 -394 -210 -394 -2 0 -4 394 -4 875 l0 874 210
-162 210 -162 0 -318z m1438 -694 l-3 -446 -235 409 -235 409 5 318 5 318 230
164 230 163 3 -444 c1 -244 1 -645 0 -891z m-540 1120 l-3 -107 -145 -103
c-80 -57 -171 -121 -202 -144 l-58 -40 0 110 c0 86 3 111 13 111 8 0 97 63
198 139 101 77 188 140 192 140 4 1 6 -47 5 -106z m-631 -37 c94 -69 176 -126
182 -126 7 0 11 -36 11 -115 0 -63 -3 -115 -6 -115 -3 0 -91 66 -195 147
l-189 146 0 100 c0 79 3 98 14 94 7 -3 90 -62 183 -131z m-3 -276 c98 -77 182
-137 186 -135 8 5 20 -103 20 -183 l0 -52 -197 2 -198 3 -3 253 c-1 138 1 252
5 252 5 -1 89 -63 187 -140z m636 -115 l0 -255 -202 2 -203 3 -3 112 -3 111
198 141 c109 77 201 140 206 141 4 0 7 -115 7 -255z"/>
<path d="M1241 570 c-1 -26 33 -110 44 -110 3 0 3 5 -1 12 -4 6 -15 36 -25 67
-11 35 -18 47 -18 31z"/>
</g>
</svg>
